# xmcd
#
# Track frame offsets: 
#        150
#        14778
#        31170
#        46074
#        64649
#        83111
#        108385
#        122067
#        133166
#        151474
#        167247
#        182120
#
# Disc length: 2588 seconds
#
# Revision: 0
# Processed by: cddbd v1.5.2PL0 Copyright (c) Steve Scherf et al.
# Submitted via: ExactAudioCopyFreeDBPlugin 1.0
#
DISCID=9e0a1a0c
DTITLE=Big Truck - What Planet Are You On?
DYEAR=2013
DGENRE=Country
TTITLE0=Big Truck
TTITLE1=Vasby Farms Grams Service
TTITLE2=The Man That Is Sitting Down
TTITLE3=Diesel Smoke, Dangerous Curves
TTITLE4=Things That I Do Well
TTITLE5=The Gas Oil Let Me Down
TTITLE6=Drunk Again
TTITLE7=Fuckin’ Around
TTITLE8=Blood Done Signed My Name
TTITLE9=Basic Need Song
TTITLE10=Muleskinner Blues
TTITLE11=A Right Inbetween Wrongs
EXTD=
EXTT0=
EXTT1=
EXTT2=
EXTT3=
EXTT4=
EXTT5=
EXTT6=
EXTT7=
EXTT8=
EXTT9=
EXTT10=
EXTT11=
PLAYORDER=
